<!DOCTYPE svg PUBLIC "-//W3C//DTD SVG 1.1//EN" "http://www.w3.org/Graphics/SVG/1.1/DTD/svg11.dtd">
<!-- Uploaded to: SVG Repo, www.svgrepo.com, Transformed by: SVG Repo Mixer Tools -->
<svg width="256px" height="256px" viewBox="-2.4 -2.4 28.80 28.80" fill="none" xmlns="http://www.w3.org/2000/svg" transform="rotate(0)">
<g id="SVGRepo_bgCarrier" stroke-width="0"/>
<g id="SVGRepo_tracerCarrier" stroke-linecap="round" stroke-linejoin="round" stroke="#CCCCCC" stroke-width="0.144"/>
<g id="SVGRepo_iconCarrier"> <path opacity="0.5" d="M10 19.5H14M10.6667 22H13.3333" stroke="#1C274C" stroke-width="1.272" stroke-linecap="round" data-darkreader-inline-stroke="" style="--darkreader-inline-stroke: var(--darkreader-text-1c274c, #b5c3d2);"/> <path d="M7.41058 13.6805L8.51463 14.7196C8.82437 15.0112 9 15.4177 9 15.843C9 16.482 9.518 17 10.157 17H13.843C14.482 17 15 16.482 15 15.843C15 15.4177 15.1756 15.0112 15.4854 14.7196L16.5894 13.6805C18.1306 12.2187 18.9912 10.2984 18.9999 8.30193L19 8.21807C19 4.8069 15.866 2 12 2C8.13401 2 5 4.8069 5 8.21807L5.00007 8.30193C5.00875 10.2984 5.86939 12.2187 7.41058 13.6805Z" stroke="#1C274C" stroke-width="1.272" data-darkreader-inline-stroke="" style="--darkreader-inline-stroke: var(--darkreader-text-1c274c, #b5c3d2);"/> </g>
</svg>